# xmcd
#
# Track frame offsets:
# 150
# 21158
# 40259
# 52607
# 68674
# 86244
# 102487
# 121234
# 146821
# 166698
# 179267
# 198068
#
# Disc length: 3070 seconds
#
#
# Revision: 0
# Processed by: cddbd v1.5.1PL0 Copyright (c) Steve Scherf et al.
# Submitted via: FreeRIP 2.60 
#
DISCID=980bfc0c
DTITLE=Ramblin' Rex - Trutnov Gospel Koncert
DYEAR=1999
DGENRE=Blues
TTITLE0=They Call Me Ramblin'
TTITLE1=Nobody Knows You
TTITLE2=Rex's Boogie
TTITLE3=Mean Old World
TTITLE4=Bo Diddley
TTITLE5=Glory Hallelujah
TTITLE6=Amazing Grace
TTITLE7=Saved
TTITLE8=Meeting in the Building
TTITLE9=Swing Low, Sweet Chariot
TTITLE10=It's Gonna Rain
TTITLE11=24.33
EXTD=
EXTT0=
EXTT1=
EXTT2=
EXTT3=
EXTT4=
EXTT5=
EXTT6=
EXTT7=
EXTT8=
EXTT9=
EXTT10=
EXTT11=
PLAYORDER=
